<svg version="1.2" xmlns="http://www.w3.org/2000/svg" viewBox="0 0 120 34" width="120" height="34">
	<title>logo-svg</title>
	<style>
		.s0 { fill: none } 
		.s1 { fill: #000000 } 
	</style>
	<path fill-rule="evenodd" class="s0" d="m0 1h120v32h-120z"/>
	<path class="s1" d="m8 20.7v-1.2h4v1.5q0 0.2 0.1 0.5 0.1 0.3 0.3 0.5 0.3 0.2 0.5 0.3 0.3 0 0.6 0 0.2 0 0.5 0 0.2-0.1 0.4-0.2 0.2-0.2 0.3-0.4 0.2-0.2 0.2-0.4 0.1-0.1 0.1-0.3 0-0.1 0-0.3 0-0.1 0-0.2 0-0.2-0.1-0.3c-0.8-2-6-2.8-6.7-5.9q-0.1-0.2-0.1-0.5 0-0.2 0-0.5 0-0.2 0-0.5 0-0.2 0.1-0.5c0.4-2.4 2.5-3.3 5.2-3.3 2.1 0 5 0.5 5 3.8v1h-3.7v-0.9q0-0.3-0.1-0.6-0.1-0.2-0.3-0.4-0.2-0.2-0.5-0.3-0.2-0.1-0.5-0.1-0.3 0-0.5 0.1-0.2 0-0.4 0.2-0.2 0.1-0.3 0.3-0.1 0.2-0.2 0.4 0 0.1 0 0.2 0 0.1 0 0.2 0 0.1 0 0.2 0 0.1 0 0.2c0.5 1.8 6.1 2.7 6.7 5.8q0.1 0.3 0.1 0.6 0.1 0.3 0.1 0.7 0 0.3-0.1 0.6 0 0.3 0 0.6c-0.4 2.5-2.6 3.4-5.3 3.4-2.8 0-5.4-1-5.4-4.3zm48.4-0.1v-1.1h3.9v1.4q0 0.3 0.1 0.5 0.1 0.3 0.4 0.5 0.2 0.2 0.4 0.3 0.3 0.1 0.6 0 0.2 0.1 0.5 0 0.2 0 0.4-0.2 0.2-0.1 0.4-0.3 0.1-0.2 0.1-0.5 0.1-0.1 0.1-0.2 0-0.2 0-0.3 0-0.1 0-0.3 0-0.1-0.1-0.2c-0.7-2-6-2.8-6.6-5.9q-0.1-0.2-0.1-0.5 0-0.2 0-0.5 0-0.2 0-0.5 0-0.2 0-0.5c0.5-2.4 2.6-3.2 5.2-3.2 2.1 0 5 0.5 5 3.7v1h-3.7v-0.9q0-0.3-0.1-0.5-0.1-0.3-0.3-0.5-0.2-0.2-0.4-0.3-0.3-0.1-0.6 0-0.2-0.1-0.4 0-0.3 0-0.4 0.2-0.2 0.1-0.4 0.3-0.1 0.2-0.1 0.4 0 0.1 0 0.2 0 0.1 0 0.2 0 0.1 0 0.2 0 0.1 0 0.2c0.4 1.8 6 2.7 6.6 5.8q0.1 0.3 0.1 0.6 0.1 0.3 0.1 0.6 0 0.3-0.1 0.6 0 0.3 0 0.6c-0.4 2.5-2.6 3.4-5.2 3.4-2.8 0-5.4-1-5.4-4.3zm14.1 0.5q0-0.1 0-0.2 0-0.1 0-0.2 0-0.2 0-0.3 0-0.1 0-0.2v-10.8h3.8v11.1q-0.1 0.1-0.1 0.1 0 0.1 0.1 0.2 0 0.1 0 0.1 0 0.1 0 0.2 0.1 0.4 0.5 0.7 0.4 0.3 0.9 0.4 0.5-0.1 0.9-0.4 0.4-0.3 0.5-0.7 0-0.1 0-0.2 0 0 0-0.1 0-0.1 0-0.2 0 0 0-0.1v-11.1h3.8v10.8c0 0.2 0 0.8 0 0.9-0.3 2.8-2.5 3.7-5.2 3.7-2.7 0-4.9-0.9-5.2-3.7zm31-0.1q0-0.1 0-0.3 0-0.1-0.1-0.2 0-0.1 0-0.3 0-0.1 0-0.2v-6.3c0-0.2 0.1-0.7 0.1-1 0.3-2.8 2.6-3.6 5.2-3.6 2.6 0 5 0.8 5.2 3.6q0 0.2 0 0.3 0 0.1 0.1 0.2 0 0.1 0 0.3 0 0.1-0.1 0.2v0.5h-3.7v-0.8q0-0.1 0-0.2 0 0 0-0.1 0-0.1 0-0.2-0.1 0-0.1-0.1-0.1-0.5-0.5-0.8-0.4-0.3-0.9-0.3-0.6 0-1 0.3-0.4 0.3-0.5 0.8 0 0.1-0.1 0.2 0 0.1 0 0.2 0 0 0 0.1 0 0.1 0 0.2v6.8q0 0.1 0 0.2 0 0.1 0 0.1 0 0.1 0 0.2 0 0 0 0.1 0.1 0.3 0.3 0.5 0.1 0.2 0.3 0.3 0.2 0.2 0.5 0.3 0.3 0 0.5 0 0.3 0 0.5 0 0.3-0.1 0.5-0.3 0.2-0.1 0.3-0.3 0.2-0.2 0.2-0.5 0-0.1 0.1-0.1 0-0.1 0-0.2 0 0 0-0.1 0-0.1 0-0.2v-2.1h-1.6v-2.2h5.3v4q0 0.1 0 0.2 0 0.2 0 0.3 0 0.1 0 0.2 0 0.2-0.1 0.3c-0.2 2.7-2.6 3.7-5.2 3.7-2.6 0-5-1-5.2-3.7zm-52.5 3.4l-0.1-13.8-2.5 13.8h-3.8l-2.5-13.8-0.1 13.8h-3.8l0.4-14.9h6l1.9 11.6 1.9-11.6h6l0.4 14.9zm-19.8 0l-2-13.8-2.1 13.8h-4l2.7-14.9h6.6l2.8 14.9zm62.9-0.2l-3.7-12.4 0.2 12.4h-3.6v-14.7h5.5l3.5 12-0.2-12h3.6v14.7z"/>
</svg>